<svg xmlns="http://www.w3.org/2000/svg" width="1440" height="900"><path d="M786,547L985,347L812,370Z" fill="#41aec3" stroke="#41aec3" stroke-width="1.51"/><path d="M786,547L958,648L985,347Z" fill="#33a3c2" stroke="#33a3c2" stroke-width="1.51"/><path d="M1109,653L1094,327L985,347Z" fill="#369ec0" stroke="#369ec0" stroke-width="1.51"/><path d="M985,347L935,179L812,370Z" fill="#56b2bf" stroke="#56b2bf" stroke-width="1.51"/><path d="M958,648L1109,653L985,347Z" fill="#2a99c1" stroke="#2a99c1" stroke-width="1.51"/><path d="M1094,327L935,179L985,347Z" fill="#54acbf" stroke="#54acbf" stroke-width="1.51"/><path d="M812,370L604,288L786,547Z" fill="#4bb7c3" stroke="#4bb7c3" stroke-width="1.51"/><path d="M935,179L738,173L812,370Z" fill="#62bbbf" stroke="#62bbbf" stroke-width="1.51"/><path d="M1109,653L1360,417L1094,327Z" fill="#3590ba" stroke="#3590ba" stroke-width="1.51"/><path d="M933,841L1187,708L1109,653Z" fill="#2280b9" stroke="#2280b9" stroke-width="1.51"/><path d="M738,173L604,288L812,370Z" fill="#60bfc0" stroke="#60bfc0" stroke-width="1.51"/><path d="M653,750L933,841L958,648Z" fill="#2d8fbc" stroke="#2d8fbc" stroke-width="1.51"/><path d="M958,648L933,841L1109,653Z" fill="#2089bd" stroke="#2089bd" stroke-width="1.51"/><path d="M653,750L958,648L786,547Z" fill="#2e9ec2" stroke="#2e9ec2" stroke-width="1.51"/><path d="M604,288L583,635L786,547Z" fill="#48b5c3" stroke="#48b5c3" stroke-width="1.51"/><path d="M583,635L653,750L786,547Z" fill="#3ca6c2" stroke="#3ca6c2" stroke-width="1.51"/><path d="M1094,327L1208,138L935,179Z" fill="#62a9ba" stroke="#62a9ba" stroke-width="1.51"/><path d="M1360,417L1252,228L1094,327Z" fill="#4f94b6" stroke="#4f94b6" stroke-width="1.51"/><path d="M1187,708L1276,702L1109,653Z" fill="#237bb6" stroke="#237bb6" stroke-width="1.51"/><path d="M1169,1013L1276,702L1187,708Z" fill="#236bae" stroke="#236bae" stroke-width="1.51"/><path d="M1252,228L1208,138L1094,327Z" fill="#5e9db6" stroke="#5e9db6" stroke-width="1.51"/><path d="M935,179L814,-13L738,173Z" fill="#7ec2be" stroke="#7ec2be" stroke-width="1.51"/><path d="M1276,702L1360,417L1109,653Z" fill="#2a80b6" stroke="#2a80b6" stroke-width="1.51"/><path d="M1450,96L1298,-38L1208,138Z" fill="#7f9caf" stroke="#7f9caf" stroke-width="1.51"/><path d="M933,841L1169,1013L1187,708Z" fill="#236fb1" stroke="#236fb1" stroke-width="1.51"/><path d="M653,750L862,939L933,841Z" fill="#3285b7" stroke="#3285b7" stroke-width="1.51"/><path d="M653,750L816,998L862,939Z" fill="#3682b4" stroke="#3682b4" stroke-width="1.51"/><path d="M583,635L554,781L653,750Z" fill="#489fbc" stroke="#489fbc" stroke-width="1.51"/><path d="M349,569L554,781L583,635Z" fill="#54abbe" stroke="#54abbe" stroke-width="1.51"/><path d="M1017,-133L814,-13L935,179Z" fill="#8dc2bc" stroke="#8dc2bc" stroke-width="1.51"/><path d="M738,173L447,202L604,288Z" fill="#76c8bd" stroke="#76c8bd" stroke-width="1.51"/><path d="M1276,702L1393,626L1360,417Z" fill="#2e79b3" stroke="#2e79b3" stroke-width="1.51"/><path d="M862,939L1169,1013L933,841Z" fill="#2871b1" stroke="#2871b1" stroke-width="1.51"/><path d="M584,983L816,998L653,750Z" fill="#3f85b3" stroke="#3f85b3" stroke-width="1.51"/><path d="M317,421L349,569L583,635Z" fill="#64babe" stroke="#64babe" stroke-width="1.51"/><path d="M457,-108L447,202L738,173Z" fill="#94d3bb" stroke="#94d3bb" stroke-width="1.51"/><path d="M1612,484L1443,350L1360,417Z" fill="#437cb0" stroke="#437cb0" stroke-width="1.51"/><path d="M1360,417L1443,350L1252,228Z" fill="#4f8ab2" stroke="#4f8ab2" stroke-width="1.51"/><path d="M317,421L583,635L604,288Z" fill="#5ebfc1" stroke="#5ebfc1" stroke-width="1.51"/><path d="M939,1230L1169,1013L862,939Z" fill="#2c63aa" stroke="#2c63aa" stroke-width="1.51"/><path d="M1554,934L1604,730L1393,626Z" fill="#2958a5" stroke="#2958a5" stroke-width="1.51"/><path d="M447,202L317,421L604,288Z" fill="#77c9bd" stroke="#77c9bd" stroke-width="1.51"/><path d="M554,781L584,983L653,750Z" fill="#4990b6" stroke="#4990b6" stroke-width="1.51"/><path d="M267,754L584,983L554,781Z" fill="#5895b4" stroke="#5895b4" stroke-width="1.51"/><path d="M1127,-109L935,179L1208,138Z" fill="#81b1b8" stroke="#81b1b8" stroke-width="1.51"/><path d="M1127,-109L1017,-133L935,179Z" fill="#8ebbba" stroke="#8ebbba" stroke-width="1.51"/><path d="M373,-58L358,180L447,202Z" fill="#9fd9b8" stroke="#9fd9b8" stroke-width="1.51"/><path d="M1298,-38L1127,-109L1208,138Z" fill="#89a9b3" stroke="#89a9b3" stroke-width="1.51"/><path d="M457,-108L738,173L814,-13Z" fill="#96d2bc" stroke="#96d2bc" stroke-width="1.51"/><path d="M447,202L358,180L317,421Z" fill="#86cebb" stroke="#86cebb" stroke-width="1.51"/><path d="M1450,96L1208,138L1252,228Z" fill="#6e97b1" stroke="#6e97b1" stroke-width="1.51"/><path d="M1443,350L1450,96L1252,228Z" fill="#608daf" stroke="#608daf" stroke-width="1.51"/><path d="M584,983L630,1082L816,998Z" fill="#4379ae" stroke="#4379ae" stroke-width="1.51"/><path d="M816,998L939,1230L862,939Z" fill="#356bac" stroke="#356bac" stroke-width="1.51"/><path d="M580,1074L630,1082L584,983Z" fill="#4d7aac" stroke="#4d7aac" stroke-width="1.51"/><path d="M1169,1013L1295,1042L1276,702Z" fill="#245ba7" stroke="#245ba7" stroke-width="1.51"/><path d="M1360,1120L1295,1042L1120,1244Z" fill="#214794" stroke="#214794" stroke-width="1.51"/><path d="M225,1037L580,1074L584,983Z" fill="#5b80ab" stroke="#5b80ab" stroke-width="1.51"/><path d="M1393,626L1612,484L1360,417Z" fill="#3876b0" stroke="#3876b0" stroke-width="1.51"/><path d="M1443,350L1663,226L1450,96Z" fill="#6283aa" stroke="#6283aa" stroke-width="1.51"/><path d="M1604,730L1612,484L1393,626Z" fill="#2f67ac" stroke="#2f67ac" stroke-width="1.51"/><path d="M349,569L267,754L554,781Z" fill="#64aabb" stroke="#64aabb" stroke-width="1.51"/><path d="M93,678L267,754L349,569Z" fill="#7bb6bc" stroke="#7bb6bc" stroke-width="1.51"/><path d="M885,-301L737,-219L1017,-133Z" fill="#a3ccc0" stroke="#a3ccc0" stroke-width="1.51"/><path d="M1017,-133L737,-219L814,-13Z" fill="#9dccbb" stroke="#9dccbb" stroke-width="1.51"/><path d="M1554,934L1393,626L1276,702Z" fill="#2761aa" stroke="#2761aa" stroke-width="1.51"/><path d="M737,-219L457,-108L814,-13Z" fill="#a4d7bb" stroke="#a4d7bb" stroke-width="1.51"/><path d="M898,1280L816,998L630,1082Z" fill="#366ca3" stroke="#366ca3" stroke-width="1.51"/><path d="M898,1280L939,1230L816,998Z" fill="#2c629b" stroke="#2c629b" stroke-width="1.51"/><path d="M457,-108L373,-58L447,202Z" fill="#aadcb8" stroke="#aadcb8" stroke-width="1.51"/><path d="M358,180L181,269L317,421Z" fill="#90d2ba" stroke="#90d2ba" stroke-width="1.51"/><path d="M317,421L83,460L349,569Z" fill="#81c8bd" stroke="#81c8bd" stroke-width="1.51"/><path d="M202,55L181,269L358,180Z" fill="#a7dcb8" stroke="#a7dcb8" stroke-width="1.51"/><path d="M737,-219L504,-273L457,-108Z" fill="#b2debc" stroke="#b2debc" stroke-width="1.51"/><path d="M1204,-286L885,-301L1017,-133Z" fill="#9fc1c0" stroke="#9fc1c0" stroke-width="1.51"/><path d="M1204,-286L1017,-133L1127,-109Z" fill="#9cb7b7" stroke="#9cb7b7" stroke-width="1.51"/><path d="M1295,1042L1554,934L1276,702Z" fill="#2553a3" stroke="#2553a3" stroke-width="1.51"/><path d="M1120,1244L1295,1042L1169,1013Z" fill="#254f9c" stroke="#254f9c" stroke-width="1.51"/><path d="M1360,1120L1554,934L1295,1042Z" fill="#26449b" stroke="#26449b" stroke-width="1.51"/><path d="M1612,484L1663,226L1443,350Z" fill="#4e78aa" stroke="#4e78aa" stroke-width="1.51"/><path d="M1232,-308L1204,-286L1298,-38Z" fill="#9aacb5" stroke="#9aacb5" stroke-width="1.51"/><path d="M1763,389L1663,226L1612,484Z" fill="#46719e" stroke="#46719e" stroke-width="1.51"/><path d="M939,1230L1120,1244L1169,1013Z" fill="#225598" stroke="#225598" stroke-width="1.51"/><path d="M939,1230L1094,1417L1120,1244Z" fill="#1a5089" stroke="#1a5089" stroke-width="1.51"/><path d="M791,1453L898,1280L630,1082Z" fill="#2a628c" stroke="#2a628c" stroke-width="1.51"/><path d="M1298,-38L1204,-286L1127,-109Z" fill="#98aeb2" stroke="#98aeb2" stroke-width="1.51"/><path d="M1594,-23L1298,-38L1450,96Z" fill="#8794ab" stroke="#8794ab" stroke-width="1.51"/><path d="M373,-58L202,55L358,180Z" fill="#b2e0b7" stroke="#b2e0b7" stroke-width="1.51"/><path d="M181,269L83,460L317,421Z" fill="#92d1bb" stroke="#92d1bb" stroke-width="1.51"/><path d="M-39,277L83,460L181,269Z" fill="#a2d8b9" stroke="#a2d8b9" stroke-width="1.51"/><path d="M1663,226L1594,-23L1450,96Z" fill="#7986a7" stroke="#7986a7" stroke-width="1.51"/><path d="M1204,-286L1232,-308L885,-301Z" fill="#a0bbc3" stroke="#a0bbc3" stroke-width="1.51"/><path d="M1642,-214L1232,-308L1298,-38Z" fill="#989eae" stroke="#989eae" stroke-width="1.51"/><path d="M267,754L225,1037L584,983Z" fill="#6890af" stroke="#6890af" stroke-width="1.51"/><path d="M83,460L93,678L349,569Z" fill="#88c3bc" stroke="#88c3bc" stroke-width="1.51"/><path d="M1773,540L1763,389L1612,484Z" fill="#336a9b" stroke="#336a9b" stroke-width="1.51"/><path d="M1554,934L1673,850L1604,730Z" fill="#24499a" stroke="#24499a" stroke-width="1.51"/><path d="M1678,1072L1673,850L1554,934Z" fill="#223c91" stroke="#223c91" stroke-width="1.51"/><path d="M1773,540L1612,484L1604,730Z" fill="#2d639f" stroke="#2d639f" stroke-width="1.51"/><path d="M1663,226L1758,-35L1594,-23Z" fill="#79839b" stroke="#79839b" stroke-width="1.51"/><path d="M885,-301L504,-273L737,-219Z" fill="#aad9c5" stroke="#aad9c5" stroke-width="1.51"/><path d="M457,-108L278,-317L373,-58Z" fill="#c2e6b5" stroke="#c2e6b5" stroke-width="1.51"/><path d="M373,-58L165,-1L202,55Z" fill="#c1e6b5" stroke="#c1e6b5" stroke-width="1.51"/><path d="M1910,772L1773,540L1604,730Z" fill="#1f5592" stroke="#1f5592" stroke-width="1.51"/><path d="M125,-226L165,-1L373,-58Z" fill="#cdebb4" stroke="#cdebb4" stroke-width="1.51"/><path d="M202,55L-39,277L181,269Z" fill="#b0dfb7" stroke="#b0dfb7" stroke-width="1.51"/><path d="M580,1074L397,1314L630,1082Z" fill="#4c739b" stroke="#4c739b" stroke-width="1.51"/><path d="M26,952L225,1037L267,754Z" fill="#829aae" stroke="#829aae" stroke-width="1.51"/><path d="M1360,1120L1519,1163L1554,934Z" fill="#253a95" stroke="#253a95" stroke-width="1.51"/><path d="M1120,1244L1260,1315L1360,1120Z" fill="#1a4287" stroke="#1a4287" stroke-width="1.51"/><path d="M1094,1417L1260,1315L1120,1244Z" fill="#194784" stroke="#194784" stroke-width="1.51"/><path d="M1476,1388L1519,1163L1360,1120Z" fill="#1a337f" stroke="#1a337f" stroke-width="1.51"/><path d="M1260,1315L1476,1388L1360,1120Z" fill="#17377c" stroke="#17377c" stroke-width="1.51"/><path d="M898,1280L1094,1417L939,1230Z" fill="#1d568a" stroke="#1d568a" stroke-width="1.51"/><path d="M791,1453L1094,1417L898,1280Z" fill="#21598b" stroke="#21598b" stroke-width="1.51"/><path d="M93,678L26,952L267,754Z" fill="#87aab4" stroke="#87aab4" stroke-width="1.51"/><path d="M83,460L-43,571L93,678Z" fill="#94c7bc" stroke="#94c7bc" stroke-width="1.51"/><path d="M-39,277L-43,571L83,460Z" fill="#9ed4bb" stroke="#9ed4bb" stroke-width="1.51"/><path d="M1519,1163L1678,1072L1554,934Z" fill="#243392" stroke="#243392" stroke-width="1.51"/><path d="M1673,850L1910,772L1604,730Z" fill="#1f4a90" stroke="#1f4a90" stroke-width="1.51"/><path d="M1834,1347L1678,1072L1519,1163Z" fill="#162774" stroke="#162774" stroke-width="1.51"/><path d="M165,-1L-39,277L202,55Z" fill="#bfe5b6" stroke="#bfe5b6" stroke-width="1.51"/><path d="M225,1037L397,1314L580,1074Z" fill="#5c7a9c" stroke="#5c7a9c" stroke-width="1.51"/><path d="M442,1412L791,1453L630,1082Z" fill="#3a698b" stroke="#3a698b" stroke-width="1.51"/><path d="M1594,-23L1642,-214L1298,-38Z" fill="#9192a8" stroke="#9192a8" stroke-width="1.51"/><path d="M1966,226L1758,-35L1663,226Z" fill="#63788e" stroke="#63788e" stroke-width="1.51"/><path d="M1966,226L1663,226L1763,389Z" fill="#4a708f" stroke="#4a708f" stroke-width="1.51"/><path d="M1758,-35L1642,-214L1594,-23Z" fill="#89899b" stroke="#89899b" stroke-width="1.51"/><path d="M1678,1072L1750,1031L1673,850Z" fill="#1f3689" stroke="#1f3689" stroke-width="1.51"/><path d="M1945,1161L1750,1031L1678,1072Z" fill="#182977" stroke="#182977" stroke-width="1.51"/><path d="M-92,752L26,952L93,678Z" fill="#90adb3" stroke="#90adb3" stroke-width="1.51"/><path d="M225,1037L226,1257L397,1314Z" fill="#677b92" stroke="#677b92" stroke-width="1.51"/><path d="M165,-1L-147,115L-39,277Z" fill="#c5e7b5" stroke="#c5e7b5" stroke-width="1.51"/><path d="M504,-273L278,-317L457,-108Z" fill="#c0e5bd" stroke="#c0e5bd" stroke-width="1.51"/><path d="M885,-301L278,-317L504,-273Z" fill="#b7e0c5" stroke="#b7e0c5" stroke-width="1.51"/><path d="M1617,-339L278,-317L885,-301Z" fill="#a5cbc9" stroke="#a5cbc9" stroke-width="1.51"/><path d="M1750,1031L1910,772L1673,850Z" fill="#1b3d85" stroke="#1b3d85" stroke-width="1.51"/><path d="M1773,540L1976,495L1763,389Z" fill="#2c638d" stroke="#2c638d" stroke-width="1.51"/><path d="M397,1314L442,1412L630,1082Z" fill="#476d8a" stroke="#476d8a" stroke-width="1.51"/><path d="M7,1174L226,1257L225,1037Z" fill="#7b8398" stroke="#7b8398" stroke-width="1.51"/><path d="M-248,511L-92,752L-43,571Z" fill="#9fc7bb" stroke="#9fc7bb" stroke-width="1.51"/><path d="M-43,571L-92,752L93,678Z" fill="#94beba" stroke="#94beba" stroke-width="1.51"/><path d="M226,1257L442,1412L397,1314Z" fill="#587388" stroke="#587388" stroke-width="1.51"/><path d="M278,-317L125,-226L373,-58Z" fill="#d0ecb8" stroke="#d0ecb8" stroke-width="1.51"/><path d="M1910,772L1976,495L1773,540Z" fill="#20588b" stroke="#20588b" stroke-width="1.51"/><path d="M-266,943L-4,1025L26,952Z" fill="#9599aa" stroke="#9599aa" stroke-width="1.51"/><path d="M26,952L-4,1025L225,1037Z" fill="#8992a9" stroke="#8992a9" stroke-width="1.51"/><path d="M1094,1417L1476,1388L1260,1315Z" fill="#163d7f" stroke="#163d7f" stroke-width="1.51"/><path d="M1881,1471L1476,1388L1094,1417Z" fill="#172e78" stroke="#172e78" stroke-width="1.51"/><path d="M1909,-302L1617,-339L1642,-214Z" fill="#8f899e" stroke="#8f899e" stroke-width="1.51"/><path d="M1642,-214L1617,-339L1232,-308Z" fill="#9b97b3" stroke="#9b97b3" stroke-width="1.51"/><path d="M1232,-308L1617,-339L885,-301Z" fill="#9eadbf" stroke="#9eadbf" stroke-width="1.51"/><path d="M1758,-35L1909,-302L1642,-214Z" fill="#898690" stroke="#898690" stroke-width="1.51"/><path d="M2025,448L1966,226L1763,389Z" fill="#3d6a8b" stroke="#3d6a8b" stroke-width="1.51"/><path d="M1966,226L1872,-41L1758,-35Z" fill="#6f7b87" stroke="#6f7b87" stroke-width="1.51"/><path d="M1976,495L2025,448L1763,389Z" fill="#2f668d" stroke="#2f668d" stroke-width="1.51"/><path d="M1910,772L2025,448L1976,495Z" fill="#235b8c" stroke="#235b8c" stroke-width="1.51"/><path d="M-4,1025L7,1174L225,1037Z" fill="#888aa4" stroke="#888aa4" stroke-width="1.51"/><path d="M226,1257L23,1461L442,1412Z" fill="#687887" stroke="#687887" stroke-width="1.51"/><path d="M-266,943L-30,1074L-4,1025Z" fill="#9695a8" stroke="#9695a8" stroke-width="1.51"/><path d="M-39,277L-240,342L-43,571Z" fill="#aad9ba" stroke="#aad9ba" stroke-width="1.51"/><path d="M-120,-40L-147,115L165,-1Z" fill="#d6eeb3" stroke="#d6eeb3" stroke-width="1.51"/><path d="M-30,1074L7,1174L-4,1025Z" fill="#8d8ca2" stroke="#8d8ca2" stroke-width="1.51"/><path d="M125,-226L-120,-40L165,-1Z" fill="#daf0b3" stroke="#daf0b3" stroke-width="1.51"/><path d="M-253,97L-240,342L-147,115Z" fill="#c6e7bc" stroke="#c6e7bc" stroke-width="1.51"/><path d="M-147,115L-240,342L-39,277Z" fill="#bae2b8" stroke="#bae2b8" stroke-width="1.51"/><path d="M-92,752L-266,943L26,952Z" fill="#97a4ae" stroke="#97a4ae" stroke-width="1.51"/><path d="M-240,342L-248,511L-43,571Z" fill="#a6d4c0" stroke="#a6d4c0" stroke-width="1.51"/><path d="M-30,1074L-167,1324L7,1174Z" fill="#868592" stroke="#868592" stroke-width="1.51"/><path d="M1910,772L1994,924L2025,448Z" fill="#1a4d87" stroke="#1a4d87" stroke-width="1.51"/><path d="M1750,1031L1994,924L1910,772Z" fill="#17387d" stroke="#17387d" stroke-width="1.51"/><path d="M1945,1161L1994,924L1750,1031Z" fill="#172b76" stroke="#172b76" stroke-width="1.51"/><path d="M-248,511L-222,783L-92,752Z" fill="#9ec0bd" stroke="#9ec0bd" stroke-width="1.51"/><path d="M-240,342L-293,32L-248,511Z" fill="#b9e1c1" stroke="#b9e1c1" stroke-width="1.51"/><path d="M-120,-40L-253,97L-147,115Z" fill="#d9f0b7" stroke="#d9f0b7" stroke-width="1.51"/><path d="M1834,1347L1945,1161L1678,1072Z" fill="#0f2265" stroke="#0f2265" stroke-width="1.51"/><path d="M1966,226L1909,-302L1872,-41Z" fill="#787e87" stroke="#787e87" stroke-width="1.51"/><path d="M1872,-41L1909,-302L1758,-35Z" fill="#7f8086" stroke="#7f8086" stroke-width="1.51"/><path d="M2025,448L1909,-302L1966,226Z" fill="#637688" stroke="#637688" stroke-width="1.51"/><path d="M1476,1388L1834,1347L1519,1163Z" fill="#142671" stroke="#142671" stroke-width="1.51"/><path d="M-248,511L-266,943L-222,783Z" fill="#9eb8bd" stroke="#9eb8bd" stroke-width="1.51"/><path d="M-222,783L-266,943L-92,752Z" fill="#9bacb6" stroke="#9bacb6" stroke-width="1.51"/><path d="M-299,1176L-266,943L-384,1387Z" fill="#918ba1" stroke="#918ba1" stroke-width="1.51"/><path d="M-253,97L-293,32L-240,342Z" fill="#cceabf" stroke="#cceabf" stroke-width="1.51"/><path d="M-120,-40L-293,32L-253,97Z" fill="#def2b9" stroke="#def2b9" stroke-width="1.51"/><path d="M-272,-254L-293,32L-120,-40Z" fill="#eaf7b9" stroke="#eaf7b9" stroke-width="1.51"/><path d="M125,-226L-144,-273L-120,-40Z" fill="#e9f6b3" stroke="#e9f6b3" stroke-width="1.51"/><path d="M278,-317L-144,-273L125,-226Z" fill="#e4f5bc" stroke="#e4f5bc" stroke-width="1.51"/><path d="M-167,1324L23,1461L7,1174Z" fill="#7e8086" stroke="#7e8086" stroke-width="1.51"/><path d="M7,1174L23,1461L226,1257Z" fill="#757d87" stroke="#757d87" stroke-width="1.51"/><path d="M442,1412L23,1461L791,1453Z" fill="#4f7089" stroke="#4f7089" stroke-width="1.51"/><path d="M-299,1176L-167,1324L-30,1074Z" fill="#8b8795" stroke="#8b8795" stroke-width="1.51"/><path d="M1834,1347L1881,1471L1945,1161Z" fill="#081d58" stroke="#081d58" stroke-width="1.51"/><path d="M1945,1161L1881,1471L1994,924Z" fill="#0e2164" stroke="#0e2164" stroke-width="1.51"/><path d="M1476,1388L1881,1471L1834,1347Z" fill="#0e2164" stroke="#0e2164" stroke-width="1.51"/><path d="M791,1453L1881,1471L1094,1417Z" fill="#173f80" stroke="#173f80" stroke-width="1.51"/><path d="M23,1461L1881,1471L791,1453Z" fill="#225a8c" stroke="#225a8c" stroke-width="1.51"/><path d="M-144,-273L-272,-254L-120,-40Z" fill="#f0f9b8" stroke="#f0f9b8" stroke-width="1.51"/><path d="M-384,1387L-266,943L-248,511Z" fill="#9c9fb7" stroke="#9c9fb7" stroke-width="1.51"/><path d="M-266,943L-299,1176L-30,1074Z" fill="#9991ab" stroke="#9991ab" stroke-width="1.51"/><path d="M-299,1176L-384,1387L-167,1324Z" fill="#868390" stroke="#868390" stroke-width="1.51"/><path d="M-167,1324L-384,1387L23,1461Z" fill="#84828a" stroke="#84828a" stroke-width="1.51"/><path d="M-293,32L-384,1387L-248,511Z" fill="#a2c6c7" stroke="#a2c6c7" stroke-width="1.51"/></svg>