<svg xmlns="http://www.w3.org/2000/svg" width="1440" height="900"><path d="M845,342L593,329L856,591Z" fill="#29915a" stroke="#29915a" stroke-width="1.51"/><path d="M593,329L512,667L856,591Z" fill="#2d8f5c" stroke="#2d8f5c" stroke-width="1.51"/><path d="M512,667L491,918L856,591Z" fill="#30865f" stroke="#30865f" stroke-width="1.51"/><path d="M593,329L187,584L512,667Z" fill="#509a68" stroke="#509a68" stroke-width="1.51"/><path d="M512,667L269,918L491,918Z" fill="#4a886a" stroke="#4a886a" stroke-width="1.51"/><path d="M528,-83L258,206L593,329Z" fill="#7eb07c" stroke="#7eb07c" stroke-width="1.51"/><path d="M258,206L187,584L593,329Z" fill="#68a772" stroke="#68a772" stroke-width="1.51"/><path d="M845,342L528,-83L593,329Z" fill="#5fa46e" stroke="#5fa46e" stroke-width="1.51"/><path d="M856,591L1253,701L845,342Z" fill="#1c805a" stroke="#1c805a" stroke-width="1.51"/><path d="M845,342L996,-154L528,-83Z" fill="#71a777" stroke="#71a777" stroke-width="1.51"/><path d="M972,1045L1253,701L856,591Z" fill="#17715a" stroke="#17715a" stroke-width="1.51"/><path d="M187,584L269,918L512,667Z" fill="#59936f" stroke="#59936f" stroke-width="1.51"/><path d="M515,1300L972,1045L491,918Z" fill="#23705a" stroke="#23705a" stroke-width="1.51"/><path d="M491,918L972,1045L856,591Z" fill="#197859" stroke="#197859" stroke-width="1.51"/><path d="M1253,701L1330,217L845,342Z" fill="#25815b" stroke="#25815b" stroke-width="1.51"/><path d="M1150,-85L996,-154L845,342Z" fill="#6d9e77" stroke="#6d9e77" stroke-width="1.51"/><path d="M-71,206L-102,607L187,584Z" fill="#84b17f" stroke="#84b17f" stroke-width="1.51"/><path d="M528,-83L260,-52L258,206Z" fill="#9dbc8c" stroke="#9dbc8c" stroke-width="1.51"/><path d="M441,-370L260,-52L528,-83Z" fill="#a9c296" stroke="#a9c296" stroke-width="1.51"/><path d="M1253,701L1595,300L1330,217Z" fill="#24775d" stroke="#24775d" stroke-width="1.51"/><path d="M972,1045L1221,963L1253,701Z" fill="#10655a" stroke="#10655a" stroke-width="1.51"/><path d="M1330,217L1150,-85L845,342Z" fill="#57926e" stroke="#57926e" stroke-width="1.51"/><path d="M-71,206L187,584L258,206Z" fill="#89b482" stroke="#89b482" stroke-width="1.51"/><path d="M187,584L-102,607L269,918Z" fill="#719e7a" stroke="#719e7a" stroke-width="1.51"/><path d="M260,-52L-71,206L258,206Z" fill="#a6bf90" stroke="#a6bf90" stroke-width="1.51"/><path d="M1211,-436L880,-349L996,-154Z" fill="#83a98c" stroke="#83a98c" stroke-width="1.51"/><path d="M996,-154L880,-349L528,-83Z" fill="#86b086" stroke="#86b086" stroke-width="1.51"/><path d="M75,1348L515,1300L269,918Z" fill="#537b6a" stroke="#537b6a" stroke-width="1.51"/><path d="M269,918L515,1300L491,918Z" fill="#457c68" stroke="#457c68" stroke-width="1.51"/><path d="M972,1045L1257,1453L1221,963Z" fill="#0c5854" stroke="#0c5854" stroke-width="1.51"/><path d="M880,-349L441,-370L528,-83Z" fill="#94ba8f" stroke="#94ba8f" stroke-width="1.51"/><path d="M260,-52L-222,-101L-71,206Z" fill="#c5cca2" stroke="#c5cca2" stroke-width="1.51"/><path d="M1729,595L1595,300L1253,701Z" fill="#156b58" stroke="#156b58" stroke-width="1.51"/><path d="M1330,217L1681,-154L1150,-85Z" fill="#6c8f7b" stroke="#6c8f7b" stroke-width="1.51"/><path d="M1150,-85L1211,-436L996,-154Z" fill="#80a287" stroke="#80a287" stroke-width="1.51"/><path d="M515,1300L800,1457L972,1045Z" fill="#166250" stroke="#166250" stroke-width="1.51"/><path d="M1546,1081L1253,701L1221,963Z" fill="#095d5a" stroke="#095d5a" stroke-width="1.51"/><path d="M1546,1081L1729,595L1253,701Z" fill="#0b5d58" stroke="#0b5d58" stroke-width="1.51"/><path d="M-102,607L-149,1028L269,918Z" fill="#7a9980" stroke="#7a9980" stroke-width="1.51"/><path d="M515,1300L75,1348L800,1457Z" fill="#3c6a5a" stroke="#3c6a5a" stroke-width="1.51"/><path d="M-565,655L-149,1028L-102,607Z" fill="#80a38b" stroke="#80a38b" stroke-width="1.51"/><path d="M1257,1453L1546,1081L1221,963Z" fill="#055053" stroke="#055053" stroke-width="1.51"/><path d="M880,-349L205,-555L441,-370Z" fill="#a4c29d" stroke="#a4c29d" stroke-width="1.51"/><path d="M1681,-154L1211,-436L1150,-85Z" fill="#7b9888" stroke="#7b9888" stroke-width="1.51"/><path d="M-149,1028L75,1348L269,918Z" fill="#6d8979" stroke="#6d8979" stroke-width="1.51"/><path d="M-615,202L-565,655L-102,607Z" fill="#8bb690" stroke="#8bb690" stroke-width="1.51"/><path d="M-214,-465L-222,-101L260,-52Z" fill="#d8d5b2" stroke="#d8d5b2" stroke-width="1.51"/><path d="M800,1457L1257,1453L972,1045Z" fill="#11564f" stroke="#11564f" stroke-width="1.51"/><path d="M-149,1028L-74,1298L75,1348Z" fill="#72857a" stroke="#72857a" stroke-width="1.51"/><path d="M441,-370L205,-555L260,-52Z" fill="#b9c9a5" stroke="#b9c9a5" stroke-width="1.51"/><path d="M1211,-436L205,-555L880,-349Z" fill="#8bb792" stroke="#8bb792" stroke-width="1.51"/><path d="M1868,283L1681,-154L1595,300Z" fill="#507a68" stroke="#507a68" stroke-width="1.51"/><path d="M1595,300L1681,-154L1330,217Z" fill="#56816f" stroke="#56816f" stroke-width="1.51"/><path d="M1729,595L1868,283L1595,300Z" fill="#256a56" stroke="#256a56" stroke-width="1.51"/><path d="M1897,538L1868,283L1729,595Z" fill="#16624f" stroke="#16624f" stroke-width="1.51"/><path d="M1926,917L1897,538L1729,595Z" fill="#10564f" stroke="#10564f" stroke-width="1.51"/><path d="M1546,1081L1926,917L1729,595Z" fill="#085152" stroke="#085152" stroke-width="1.51"/><path d="M1257,1453L1643,1248L1546,1081Z" fill="#01474f" stroke="#01474f" stroke-width="1.51"/><path d="M1681,-154L1639,-386L1211,-436Z" fill="#7a938b" stroke="#7a938b" stroke-width="1.51"/><path d="M1211,-436L1639,-386L205,-555Z" fill="#86ab93" stroke="#86ab93" stroke-width="1.51"/><path d="M2048,-337L1639,-386L1681,-154Z" fill="#748781" stroke="#748781" stroke-width="1.51"/><path d="M-149,1028L-555,1463L-74,1298Z" fill="#748680" stroke="#748680" stroke-width="1.51"/><path d="M-615,202L-102,607L-71,206Z" fill="#9abd93" stroke="#9abd93" stroke-width="1.51"/><path d="M1875,1249L1926,917L1546,1081Z" fill="#01444d" stroke="#01444d" stroke-width="1.51"/><path d="M-222,-101L-615,202L-71,206Z" fill="#bdcba7" stroke="#bdcba7" stroke-width="1.51"/><path d="M205,-555L-214,-465L260,-52Z" fill="#d1d3b3" stroke="#d1d3b3" stroke-width="1.51"/><path d="M-585,-58L-615,202L-222,-101Z" fill="#cdd3b5" stroke="#cdd3b5" stroke-width="1.51"/><path d="M1643,1248L1875,1249L1546,1081Z" fill="#01424c" stroke="#01424c" stroke-width="1.51"/><path d="M1257,1453L1875,1249L1643,1248Z" fill="#01404a" stroke="#01404a" stroke-width="1.51"/><path d="M-649,-395L-585,-58L-222,-101Z" fill="#dedbc2" stroke="#dedbc2" stroke-width="1.51"/><path d="M-565,655L-625,1003L-149,1028Z" fill="#7f9d92" stroke="#7f9d92" stroke-width="1.51"/><path d="M-615,202L-625,1003L-565,655Z" fill="#89b097" stroke="#89b097" stroke-width="1.51"/><path d="M1926,917L2091,-47L1897,538Z" fill="#165d4c" stroke="#165d4c" stroke-width="1.51"/><path d="M1897,538L2091,-47L1868,283Z" fill="#3c6a5a" stroke="#3c6a5a" stroke-width="1.51"/><path d="M1868,283L2091,-47L1681,-154Z" fill="#5f796c" stroke="#5f796c" stroke-width="1.51"/><path d="M1875,1249L2091,-47L1926,917Z" fill="#0f514c" stroke="#0f514c" stroke-width="1.51"/><path d="M2091,-47L2048,-337L1681,-154Z" fill="#6f7f77" stroke="#6f7f77" stroke-width="1.51"/><path d="M-625,1003L-555,1463L-149,1028Z" fill="#788e8b" stroke="#788e8b" stroke-width="1.51"/><path d="M-74,1298L-555,1463L75,1348Z" fill="#70807a" stroke="#70807a" stroke-width="1.51"/><path d="M75,1348L-555,1463L800,1457Z" fill="#62766b" stroke="#62766b" stroke-width="1.51"/><path d="M-615,202L-649,-395L-625,1003Z" fill="#aac6a6" stroke="#aac6a6" stroke-width="1.51"/><path d="M-585,-58L-649,-395L-615,202Z" fill="#dedac2" stroke="#dedac2" stroke-width="1.51"/><path d="M-214,-465L-649,-395L-222,-101Z" fill="#e0dbc5" stroke="#e0dbc5" stroke-width="1.51"/><path d="M205,-555L-649,-395L-214,-465Z" fill="#e1dcc7" stroke="#e1dcc7" stroke-width="1.51"/></svg>