<svg xmlns="http://www.w3.org/2000/svg" width="1440" height="900"><path d="M813,385L623,364L831,569Z" fill="#fefefe" stroke="#fefefe" stroke-width="1.51"/><path d="M623,364L495,689L831,569Z" fill="#fcfcfc" stroke="#fcfcfc" stroke-width="1.51"/><path d="M495,689L463,876L831,569Z" fill="#f9f9f8" stroke="#f9f9f8" stroke-width="1.51"/><path d="M623,364L192,557L495,689Z" fill="#fbf9f9" stroke="#fbf9f9" stroke-width="1.51"/><path d="M495,689L320,877L463,876Z" fill="#f6f4f4" stroke="#f6f4f4" stroke-width="1.51"/><path d="M521,-79L304,170L623,364Z" fill="#f8f6f6" stroke="#f8f6f6" stroke-width="1.51"/><path d="M304,170L192,557L623,364Z" fill="#f9f9f8" stroke="#f9f9f8" stroke-width="1.51"/><path d="M192,557L320,877L495,689Z" fill="#f6f5f4" stroke="#f6f5f4" stroke-width="1.51"/><path d="M813,385L521,-79L623,364Z" fill="#fafafa" stroke="#fafafa" stroke-width="1.51"/><path d="M831,569L1250,742L813,385Z" fill="#fbfaf9" stroke="#fbfaf9" stroke-width="1.51"/><path d="M813,385L1086,-82L521,-79Z" fill="#f8f7f7" stroke="#f8f7f7" stroke-width="1.51"/><path d="M1198,948L1250,742L831,569Z" fill="#f6f4f4" stroke="#f6f4f4" stroke-width="1.51"/><path d="M-7,169L-56,593L192,557Z" fill="#f7f6f5" stroke="#f7f6f5" stroke-width="1.51"/><path d="M521,-79L307,-30L304,170Z" fill="#f4f3f2" stroke="#f4f3f2" stroke-width="1.51"/><path d="M501,1272L1014,1077L463,876Z" fill="#f8f6f5" stroke="#f8f6f5" stroke-width="1.51"/><path d="M463,876L1014,1077L831,569Z" fill="#f8f7f7" stroke="#f8f7f7" stroke-width="1.51"/><path d="M1014,1077L1198,948L831,569Z" fill="#f5f3f3" stroke="#f5f3f3" stroke-width="1.51"/><path d="M1371,186L1086,-82L813,385Z" fill="#f7f5f4" stroke="#f7f5f4" stroke-width="1.51"/><path d="M1250,742L1371,186L813,385Z" fill="#faf9f9" stroke="#faf9f9" stroke-width="1.51"/><path d="M1183,-428L1052,-192L1086,-82Z" fill="#f4f3f2" stroke="#f4f3f2" stroke-width="1.51"/><path d="M1086,-82L869,-290L521,-79Z" fill="#f7f5f4" stroke="#f7f5f4" stroke-width="1.51"/><path d="M-7,169L192,557L304,170Z" fill="#f7f5f4" stroke="#f7f5f4" stroke-width="1.51"/><path d="M192,557L-56,593L320,877Z" fill="#f5f3f3" stroke="#f5f3f3" stroke-width="1.51"/><path d="M307,-30L-7,169L304,170Z" fill="#f4f2f1" stroke="#f4f2f1" stroke-width="1.51"/><path d="M1052,-192L869,-290L1086,-82Z" fill="#f5f3f3" stroke="#f5f3f3" stroke-width="1.51"/><path d="M521,-79L384,-323L307,-30Z" fill="#f4f2f1" stroke="#f4f2f1" stroke-width="1.51"/><path d="M-12,1268L501,1272L320,877Z" fill="#f4f2f1" stroke="#f4f2f1" stroke-width="1.51"/><path d="M320,877L501,1272L463,876Z" fill="#f4f2f1" stroke="#f4f2f1" stroke-width="1.51"/><path d="M869,-290L384,-323L521,-79Z" fill="#f7f6f5" stroke="#f7f6f5" stroke-width="1.51"/><path d="M307,-30L-246,-107L-7,169Z" fill="#f0eeed" stroke="#f0eeed" stroke-width="1.51"/><path d="M1250,742L1580,318L1371,186Z" fill="#f7f5f5" stroke="#f7f5f5" stroke-width="1.51"/><path d="M1650,-348L1183,-428L1086,-82Z" fill="#f3f1f0" stroke="#f3f1f0" stroke-width="1.51"/><path d="M1794,575L1580,318L1250,742Z" fill="#f6f5f4" stroke="#f6f5f4" stroke-width="1.51"/><path d="M-56,593L-131,1051L320,877Z" fill="#f2efee" stroke="#f2efee" stroke-width="1.51"/><path d="M-579,670L-131,1051L-56,593Z" fill="#f5f3f2" stroke="#f5f3f2" stroke-width="1.51"/><path d="M1198,948L1503,1135L1250,742Z" fill="#f1eeed" stroke="#f1eeed" stroke-width="1.51"/><path d="M1014,1077L1503,1135L1198,948Z" fill="#f2efef" stroke="#f2efef" stroke-width="1.51"/><path d="M1256,1514L1503,1135L1014,1077Z" fill="#f4f3f2" stroke="#f4f3f2" stroke-width="1.51"/><path d="M501,1272L742,1519L1014,1077Z" fill="#fbfafa" stroke="#fbfafa" stroke-width="1.51"/><path d="M14,1346L742,1519L501,1272Z" fill="#f9f8f8" stroke="#f9f8f8" stroke-width="1.51"/><path d="M869,-290L220,-616L384,-323Z" fill="#f9f8f8" stroke="#f9f8f8" stroke-width="1.51"/><path d="M1052,-192L1183,-428L869,-290Z" fill="#f6f5f4" stroke="#f6f5f4" stroke-width="1.51"/><path d="M1717,-191L1086,-82L1371,186Z" fill="#f0edec" stroke="#f0edec" stroke-width="1.51"/><path d="M-131,1051L-12,1268L320,877Z" fill="#f0eeed" stroke="#f0eeed" stroke-width="1.51"/><path d="M1580,318L1717,-191L1371,186Z" fill="#f3f1f0" stroke="#f3f1f0" stroke-width="1.51"/><path d="M1503,1135L1794,575L1250,742Z" fill="#f2f0ef" stroke="#f2f0ef" stroke-width="1.51"/><path d="M-564,1529L14,1346L-12,1268Z" fill="#f7f5f4" stroke="#f7f5f4" stroke-width="1.51"/><path d="M-12,1268L14,1346L501,1272Z" fill="#f5f3f3" stroke="#f5f3f3" stroke-width="1.51"/><path d="M1849,484L1803,290L1580,318Z" fill="#f9f8f7" stroke="#f9f8f7" stroke-width="1.51"/><path d="M-658,162L-579,670L-56,593Z" fill="#fbfafa" stroke="#fbfafa" stroke-width="1.51"/><path d="M384,-323L-246,-107L307,-30Z" fill="#f2efee" stroke="#f2efee" stroke-width="1.51"/><path d="M1794,575L1849,484L1580,318Z" fill="#faf9f9" stroke="#faf9f9" stroke-width="1.51"/><path d="M1895,875L1849,484L1794,575Z" fill="#f9f7f7" stroke="#f9f7f7" stroke-width="1.51"/><path d="M742,1519L1256,1514L1014,1077Z" fill="#faf8f8" stroke="#faf8f8" stroke-width="1.51"/><path d="M1256,1514L1656,1190L1503,1135Z" fill="#f4f1f1" stroke="#f4f1f1" stroke-width="1.51"/><path d="M1503,1135L1895,875L1794,575Z" fill="#f4f2f1" stroke="#f4f2f1" stroke-width="1.51"/><path d="M384,-323L-234,-473L-246,-107Z" fill="#f2f0ef" stroke="#f2f0ef" stroke-width="1.51"/><path d="M1183,-428L220,-616L869,-290Z" fill="#fbfbfb" stroke="#fbfbfb" stroke-width="1.51"/><path d="M2156,-22L1717,-191L1803,290Z" fill="#f5f4f3" stroke="#f5f4f3" stroke-width="1.51"/><path d="M1803,290L1717,-191L1580,318Z" fill="#f5f3f2" stroke="#f5f3f2" stroke-width="1.51"/><path d="M1656,1190L1895,875L1503,1135Z" fill="#f2f0f0" stroke="#f2f0f0" stroke-width="1.51"/><path d="M1717,-191L1650,-348L1086,-82Z" fill="#f1eeed" stroke="#f1eeed" stroke-width="1.51"/><path d="M1183,-428L1650,-348L220,-616Z" fill="#f9f8f8" stroke="#f9f8f8" stroke-width="1.51"/><path d="M-131,1051L-564,1529L-12,1268Z" fill="#f6f4f4" stroke="#f6f4f4" stroke-width="1.51"/><path d="M-658,162L-56,593L-7,169Z" fill="#f7f6f6" stroke="#f7f6f6" stroke-width="1.51"/><path d="M1656,1190L1815,1191L1895,875Z" fill="#f4f2f2" stroke="#f4f2f2" stroke-width="1.51"/><path d="M1256,1514L1815,1191L1656,1190Z" fill="#f5f3f2" stroke="#f5f3f2" stroke-width="1.51"/><path d="M-246,-107L-658,162L-7,169Z" fill="#f5f3f2" stroke="#f5f3f2" stroke-width="1.51"/><path d="M220,-616L-234,-473L384,-323Z" fill="#f6f4f3" stroke="#f6f4f3" stroke-width="1.51"/><path d="M-611,-38L-658,162L-246,-107Z" fill="#f6f4f4" stroke="#f6f4f4" stroke-width="1.51"/><path d="M-712,-363L-611,-38L-246,-107Z" fill="#f6f4f3" stroke="#f6f4f3" stroke-width="1.51"/><path d="M-579,670L-675,1010L-131,1051Z" fill="#f5f3f3" stroke="#f5f3f3" stroke-width="1.51"/><path d="M-658,162L-675,1010L-579,670Z" fill="#fbfbfb" stroke="#fbfbfb" stroke-width="1.51"/><path d="M1895,875L2156,-22L1849,484Z" fill="#fdfcfc" stroke="#fdfcfc" stroke-width="1.51"/><path d="M1849,484L2156,-22L1803,290Z" fill="#f9f8f8" stroke="#f9f8f8" stroke-width="1.51"/><path d="M1717,-191L2088,-271L1650,-348Z" fill="#f5f4f3" stroke="#f5f4f3" stroke-width="1.51"/><path d="M1815,1191L2156,-22L1895,875Z" fill="#f9f8f7" stroke="#f9f8f7" stroke-width="1.51"/><path d="M2156,-22L2088,-271L1717,-191Z" fill="#f6f4f4" stroke="#f6f4f4" stroke-width="1.51"/><path d="M1650,-348L2088,-271L220,-616Z" fill="#f5f3f2" stroke="#f5f3f2" stroke-width="1.51"/><path d="M-675,1010L-564,1529L-131,1051Z" fill="#f7f5f5" stroke="#f7f5f5" stroke-width="1.51"/><path d="M14,1346L-564,1529L742,1519Z" fill="#f6f5f5" stroke="#f6f5f5" stroke-width="1.51"/><path d="M-658,162L-712,-363L-675,1010Z" fill="#fcfbfb" stroke="#fcfbfb" stroke-width="1.51"/><path d="M-611,-38L-712,-363L-658,162Z" fill="#f6f4f4" stroke="#f6f4f4" stroke-width="1.51"/><path d="M-234,-473L-712,-363L-246,-107Z" fill="#f7f5f4" stroke="#f7f5f4" stroke-width="1.51"/><path d="M220,-616L-712,-363L-234,-473Z" fill="#f7f6f6" stroke="#f7f6f6" stroke-width="1.51"/></svg>